<svg width="130" height="110" viewBox="0 0 130 110" fill="none" xmlns="http://www.w3.org/2000/svg">
<rect width="130" height="110" fill="white"/>
<rect x="44" y="32" width="46" height="44" rx="1.87118" fill="#A8D7F0"/>
<path d="M53.5416 21.771V27.5002H61.5624V21.771C61.5624 19.909 62.9947 18.3335 64.9999 18.3335C66.8619 18.3335 68.4374 19.909 68.4374 21.771V27.5002H76.4583V21.771C76.4583 19.909 77.8905 18.3335 79.8958 18.3335C81.7577 18.3335 83.3333 19.909 83.3333 21.771V27.5002C88.3463 27.5002 92.4999 31.6538 92.4999 36.6668H98.2291C100.091 36.6668 101.667 38.2424 101.667 40.1043C101.667 42.1095 100.091 43.5418 98.2291 43.5418H92.4999V51.5627H98.2291C100.091 51.5627 101.667 53.1382 101.667 55.0002C101.667 57.0054 100.091 58.4377 98.2291 58.4377H92.4999V66.4585H98.2291C100.091 66.4585 101.667 68.034 101.667 69.896C101.667 71.9012 100.091 73.3335 98.2291 73.3335H92.4999C92.4999 78.4897 88.3463 82.5002 83.3333 82.5002V88.2293C83.3333 90.2345 81.7577 91.6668 79.8958 91.6668C77.8905 91.6668 76.4583 90.2345 76.4583 88.2293V82.5002H68.4374V88.2293C68.4374 90.2345 66.8619 91.6668 64.9999 91.6668C62.9947 91.6668 61.5624 90.2345 61.5624 88.2293V82.5002H53.5416V88.2293C53.5416 90.2345 51.9661 91.6668 50.1041 91.6668C48.0989 91.6668 46.6666 90.2345 46.6666 88.2293V82.5002C41.5103 82.5002 37.4999 78.4897 37.4999 73.3335H31.7708C29.7655 73.3335 28.3333 71.9012 28.3333 69.896C28.3333 68.034 29.7655 66.4585 31.7708 66.4585H37.4999V58.4377H31.7708C29.7655 58.4377 28.3333 57.0054 28.3333 55.0002C28.3333 53.1382 29.7655 51.5627 31.7708 51.5627H37.4999V43.5418H31.7708C29.7655 43.5418 28.3333 42.1095 28.3333 40.1043C28.3333 38.2424 29.7655 36.6668 31.7708 36.6668H37.4999C37.4999 31.6538 41.5103 27.5002 46.6666 27.5002V21.771C46.6666 19.909 48.0989 18.3335 50.1041 18.3335C51.9661 18.3335 53.5416 19.909 53.5416 21.771ZM58.1249 43.5418C57.1223 43.5418 56.2629 44.1147 55.9765 44.9741L49.9609 58.7241L47.9556 63.3075C47.3827 64.4533 47.9556 65.7424 49.1015 66.3153C50.2473 66.8882 51.6796 66.3153 52.1093 65.1694L53.5416 61.8752H62.565L63.9973 65.1694C64.5702 66.3153 65.8593 66.8882 67.0051 66.3153C68.151 65.8856 68.7239 64.4533 68.151 63.3075L66.1458 58.7241L60.1301 44.9741C59.8437 44.1147 58.9843 43.5418 58.1249 43.5418ZM60.5598 57.2918H55.5468L58.1249 51.5627L60.5598 57.2918ZM76.4583 43.5418C75.1692 43.5418 74.1666 44.6877 74.1666 45.8335V64.1668C74.1666 65.4559 75.1692 66.4585 76.4583 66.4585C77.6041 66.4585 78.7499 65.4559 78.7499 64.1668V45.8335C78.7499 44.6877 77.6041 43.5418 76.4583 43.5418Z" fill="#032F47"/>
</svg>
