<svg width="130" height="110" viewBox="0 0 130 110" fill="none" xmlns="http://www.w3.org/2000/svg">
<rect width="130" height="110" fill="white"/>
<rect x="37" y="53" width="16" height="16" fill="#A8D7F0"/>
<rect x="42" y="34" width="16" height="16" fill="#A8D7F0"/>
<rect x="58" y="26" width="16" height="16" fill="#A8D7F0"/>
<rect x="74" y="37" width="16" height="16" fill="#A8D7F0"/>
<path d="M98.4636 55.0649C98.4636 55.1954 98.4636 55.3259 98.4636 55.4563C98.3332 60.2834 94.0279 63.4146 89.2008 63.4146H76.5459C73.0234 63.4146 70.2837 66.2847 70.2837 69.6768C70.2837 70.1986 70.2837 70.59 70.4142 70.9814C70.6751 72.4165 71.1969 73.5906 71.7188 74.8953C72.5016 76.7217 73.2843 78.5482 73.2843 80.3747C73.2843 84.5495 70.5446 88.3329 66.3698 88.4634C65.9784 88.4634 65.4566 88.4634 64.9347 88.4634C46.5395 88.4634 31.6667 73.5906 31.6667 55.0649C31.6667 36.6697 46.5395 21.6665 65.0652 21.6665C83.4604 21.6665 98.4636 36.6697 98.4636 55.0649ZM48.366 59.2397C48.366 57.0219 46.409 55.0649 44.1912 55.0649C41.8428 55.0649 40.0164 57.0219 40.0164 59.2397C40.0164 61.5881 41.8428 63.4146 44.1912 63.4146C46.409 63.4146 48.366 61.5881 48.366 59.2397ZM48.366 46.7153C50.5838 46.7153 52.5408 44.8889 52.5408 42.5405C52.5408 40.3227 50.5838 38.3657 48.366 38.3657C46.0176 38.3657 44.1912 40.3227 44.1912 42.5405C44.1912 44.8889 46.0176 46.7153 48.366 46.7153ZM69.24 34.1909C69.24 31.9731 67.2831 30.0161 65.0652 30.0161C62.7169 30.0161 60.8904 31.9731 60.8904 34.1909C60.8904 36.5392 62.7169 38.3657 65.0652 38.3657C67.2831 38.3657 69.24 36.5392 69.24 34.1909ZM81.7644 46.7153C83.9823 46.7153 85.9392 44.8889 85.9392 42.5405C85.9392 40.3227 83.9823 38.3657 81.7644 38.3657C79.4161 38.3657 77.5896 40.3227 77.5896 42.5405C77.5896 44.8889 79.4161 46.7153 81.7644 46.7153Z" fill="#032F47"/>
</svg>
