<svg width="50" height="50" viewBox="0 0 50 50" fill="none" xmlns="http://www.w3.org/2000/svg">
<path d="M23.7483 36.5789C31.2152 36.5789 36.9868 30.9235 36.9868 23.9474C36.9868 17.4117 31.5647 13.4211 27.9733 13.4211C22.9706 13.4211 18.9611 16.9419 18.3924 22.1679C18.2875 23.1321 17.5205 23.9403 16.5476 23.9333C14.9364 23.9218 12.598 23.908 11.1153 23.9131C10.4742 23.9153 9.9442 23.397 9.97565 22.7589C10.199 18.2279 11.7098 13.9914 14.5914 10.7371C17.7926 7.12193 22.4543 5 27.9733 5C37.2462 5 46 13.4465 46 23.9474C46 35.5744 36.3904 45 23.9456 45C15.0704 45 6.13173 39.1854 3.01086 31.0563C2.99932 31.0262 2.99741 30.9947 3.00308 30.962C3.04457 30.7215 3.12714 30.5017 3.20841 30.2853C3.3266 29.9708 3.44208 29.6633 3.42522 29.3088L3.37129 28.1765C3.34471 27.6179 3.65949 27.0984 4.16877 26.8608L4.6199 26.6502C5.13429 26.4102 5.5 25.9374 5.60118 25.3815C5.75238 24.5511 6.47962 23.9474 7.32846 23.9474C8.6534 23.9474 9.80539 24.8262 10.2354 26.0754C12.3191 32.1286 15.6311 36.5789 23.7483 36.5789Z" fill="#FB6970"/>
</svg>
