<svg width="50" height="50" viewBox="0 0 50 50" fill="none" xmlns="http://www.w3.org/2000/svg">
<path fill-rule="evenodd" clip-rule="evenodd" d="M15.3548 13.1495H19.1885C20.5711 13.1495 21.9537 13.0867 23.3363 13.1809C25.1903 13.2437 27.0443 13.7462 28.7097 14.5941L12.9353 24.9883C11.9611 23.3867 11.0184 21.8166 10.0443 20.2151C9.38444 19.1474 8.75598 18.0797 8.09609 17.012L7.53047 16.07C7.49905 16.0072 7.40478 15.913 7.40478 15.8501C7.40478 15.6931 7.87613 15.4733 8.00182 15.3791C10.17 13.9346 12.7467 13.1495 15.3548 13.1495ZM9.32159 22.1935L6.08501 16.8864C3.72827 19.1474 2.18854 22.2877 2 25.7419L9.32159 22.1935Z" fill="#13295D"/>
<path fill-rule="evenodd" clip-rule="evenodd" d="M22.1225 32.3506H14.3614V36.871H2V27.3877L10.1679 23.468L12.3899 27.1665V27.1349V27.1665C13.2348 26.5975 14.0485 26.0601 14.8934 25.4911C15.1438 25.333 15.3629 25.175 15.6132 25.0169C15.7071 24.9537 15.8949 24.764 16.02 24.7324C16.1452 24.7008 16.1765 24.8589 16.2704 24.9537C17.7412 26.7871 19.1808 28.6522 20.6517 30.4856C21.1524 31.1178 21.6531 31.7184 22.1225 32.3506ZM41.4627 28.0516C40.8681 29.0315 39.9292 29.6321 38.8339 29.8534C38.1454 29.9798 37.363 30.0747 36.7372 29.7269C36.4555 29.5689 36.1426 29.316 36.0174 29.0315C35.8609 28.6838 35.8609 28.2412 35.8609 27.8619V26.313C35.8609 23.1835 34.7343 20.0856 32.7314 17.6832C32.2307 17.0826 31.6987 16.5452 31.1041 16.0394C30.885 15.8498 30.5721 15.5021 30.2904 15.4072C30.1027 15.344 30.2904 15.344 30.1653 15.3756C30.0714 15.4072 29.9462 15.5337 29.8523 15.5653C29.6645 15.6917 29.4455 15.8182 29.2577 15.9762C26.2534 17.9677 23.2491 19.9908 20.2448 21.9823C19.3373 22.5829 18.3984 23.2151 17.4909 23.8157L24.0941 32.3506H24.0628V36.871H35.8296V34.7531C39.4285 36.9658 44.1853 35.9227 46.595 32.4455C48.7856 29.2528 48.3788 24.7956 45.6249 22.0455C44.1227 20.5598 42.0886 19.7379 39.9918 19.7379V23.626H40.0231C41.9321 23.626 43.6533 24.9853 44.0914 26.882C44.5295 28.747 43.5907 30.7385 41.9008 31.592C40.8055 32.1294 39.5224 32.1926 38.3958 31.6868C40.117 31.3707 41.4001 29.8218 41.4627 28.0516ZM28.9135 24.037C28.1311 24.037 27.5052 23.3732 27.5052 22.6145C27.5052 21.8242 28.1624 21.192 28.9135 21.192C29.6958 21.192 30.3217 21.8558 30.3217 22.6145C30.3217 23.3732 29.6645 24.037 28.9135 24.037Z" fill="#13295D"/>
</svg>
