<svg width="111" height="32" viewBox="0 0 111 32" fill="none" xmlns="http://www.w3.org/2000/svg">
<path fill-rule="evenodd" clip-rule="evenodd" d="M23.699 6.95072C23.3847 7.30195 23.015 7.65318 22.6268 8.04139L21.0925 9.50178H25.5476V11.3134H18.375V10.3706L20.8706 7.35741C21.3328 6.89526 21.721 6.48857 21.9983 6.13734C22.2756 5.80459 22.6083 5.3979 22.7562 5.1391C22.9411 4.84332 23.8838 3.93751 23.7914 2.80987C23.3847 1.55282 22.2201 1.4419 21.5361 1.53433C20.8337 1.55282 20.0203 2.49561 19.8909 3.30899C19.8909 3.30899 18.6154 3.12413 18.3381 2.99473C18.3566 2.64349 18.9666 1.10916 20.1497 0.425177C20.7228 0.166374 21.0925 0.0369742 21.758 0.0369742C22.2756 0.0369742 22.7377 0.110916 23.1629 0.240318C23.5881 0.36972 23.9393 0.573065 24.2351 0.831868C24.5309 1.09067 25.03 1.40493 25.1779 1.79314C25.4182 2.29226 25.603 2.80986 25.603 3.32747C25.6585 4.4736 24.6787 5.60124 24.4939 5.89702C24.2721 6.26674 24.0133 6.61797 23.699 6.95072ZM15.3803 31.0194C6.87677 31.0194 0 24.1242 0 15.6391C0 7.13558 6.89526 0.258805 15.3803 0.258805V5.69368C9.88999 5.69368 5.43487 10.1488 5.43487 15.6391C5.43487 21.1294 9.88999 25.603 15.3803 25.603C19.743 25.603 23.4402 22.7932 24.7897 18.8926C22.1277 18.8926 18.3566 18.8742 18.3566 18.8742V13.1805C18.3566 13.1805 29.9842 13.1805 30.5758 13.1805C30.7052 13.9754 30.7791 14.8072 30.7791 15.6391C30.7606 24.1427 23.8839 31.0194 15.3803 31.0194ZM35.9367 0H36.9719V30.7606H35.9367V0ZM50.9658 22.7192C50.0784 23.2553 48.9693 23.5326 47.6753 23.5326C46.3258 23.5326 45.1982 23.3108 44.3293 22.8486C43.442 22.3865 42.8689 21.758 42.5731 20.9446C42.2959 20.1312 42.148 18.9111 42.148 17.2844V12.4226C42.148 11.221 42.1849 10.3336 42.2774 9.72361C42.3698 9.13206 42.6286 8.54051 43.0723 7.98593C43.5159 7.43135 44.1075 6.98769 44.8839 6.67343C45.6603 6.35917 46.5476 6.19279 47.5459 6.19279C48.9138 6.19279 50.0415 6.43311 50.9288 6.93223C51.8161 7.43135 52.3892 8.04139 52.685 8.78083C52.9622 9.52026 53.0177 9.29844 53.0177 10.8513V12.1453L49.2466 12.0898V10.9622C49.2466 10.1118 49.1541 9.57572 48.9508 9.35389C48.7475 9.15055 48.3223 9.03963 47.6753 9.03963C46.9173 9.03963 46.4552 9.16903 46.2518 9.42784C46.0485 9.68664 45.9561 10.2412 45.9561 11.0916V18.6893C45.9561 19.5027 46.0485 20.0388 46.2518 20.2976C46.4552 20.5564 46.8989 20.6673 47.6198 20.6673C48.3038 20.6673 48.729 20.5379 48.9508 20.2976C49.1541 20.0388 49.2651 19.706 49.2651 18.7817L49.2466 17.5801H53.0362V17.8389C53.0362 19.5581 52.9807 20.1127 52.7219 20.8152C52.4262 21.5361 51.8531 22.1831 50.9658 22.7192ZM61.7431 10.5925C61.7431 10.0748 61.4843 9.46481 60.9852 9.29844C60.486 9.13206 59.839 9.05812 58.508 9.05812V13.772C59.8021 13.772 60.4491 13.6981 60.9482 13.5687C61.4658 13.4393 61.7246 12.2377 61.7246 11.4983V10.5925H61.7431ZM61.7431 18.0423C61.7431 17.155 61.5582 16.6189 61.1885 16.397C60.8188 16.1937 60.0978 16.0828 58.5265 16.0828V23.2738H54.8108L54.8663 6.56251H58.2123C60.4491 6.56251 61.9649 6.63646 62.7598 6.80283C63.5547 6.96921 64.2017 7.35741 64.7008 8.00442C65.2 8.65143 65.4588 9.68664 65.4588 11.1101C65.4588 12.4041 65.2369 13.5687 64.9042 14.0124C64.5529 14.456 63.869 14.7333 62.8522 14.8257C63.7765 15.0476 64.4051 15.3249 64.7193 15.6761C65.0336 16.0273 65.2369 16.3601 65.3109 16.6558C65.3848 16.9516 65.4772 17.4507 65.4772 18.8002V23.1814L61.78 23.2738V18.0423H61.7431ZM74.979 10.8513C74.979 10.0748 74.8496 9.59421 74.6093 9.37238C74.369 9.15055 73.8514 9.05812 73.0935 9.05812C72.4464 9.05812 71.9473 9.15055 71.5961 9.31692C71.2449 9.48329 71.0785 10.0009 71.0785 10.8513V18.5784C71.0785 19.5396 71.1894 20.1312 71.4112 20.353C71.6331 20.5749 72.1692 20.6858 72.9825 20.6858C73.8329 20.6858 74.369 20.5564 74.6093 20.2976C74.8496 20.0388 74.9605 19.4287 74.9605 18.449V10.8513H74.979ZM77.8813 21.7395C77.4192 22.3125 76.7722 22.7562 75.9773 23.0705C75.1824 23.3847 74.2396 23.5326 73.1674 23.5326C72.1507 23.5326 71.2449 23.3847 70.4315 23.089C69.6181 22.7932 68.9711 22.368 68.4904 21.7765C67.9913 21.2034 67.714 20.5564 67.6216 19.8724C67.5292 19.1884 67.4737 17.9868 67.4737 16.2676V13.4208C67.4737 11.7571 67.5107 10.574 67.6031 9.8715C67.6955 9.16903 67.9728 8.54051 68.4535 7.96745C68.9341 7.39438 69.5626 6.95072 70.3575 6.63646C71.1524 6.32219 72.0952 6.17431 73.1674 6.17431C74.1841 6.17431 75.0899 6.3222 75.9033 6.61797C76.7167 6.91375 77.3637 7.33892 77.8443 7.93047C78.325 8.50354 78.6208 9.15055 78.7132 9.83453C78.8056 10.5185 78.8611 11.7201 78.8611 13.4208V16.2861C78.8611 17.9499 78.8241 19.133 78.7317 19.8354C78.6392 20.5379 78.3619 21.1664 77.8813 21.7395ZM91.6718 23.1814C91.1357 20.6303 89.8787 14.3636 89.4535 11.0916C89.2687 12.4965 87.7898 18.7632 87.1058 23.1814H83.0389L79.8778 6.54403H83.4456L84.4623 12.3486L85.2018 19.2439C85.3681 16.3416 86.847 11.2395 87.5495 6.54403H91.6903C91.7458 7.02466 92.4482 8.85477 92.7255 12.0344L93.7607 19.133C94.038 15.103 94.9808 10.3891 95.6093 6.54403H98.9183L95.5169 23.1814H91.6718ZM107.292 11.3504C107.292 10.6109 107.237 10.1303 107.126 9.90847C107.015 9.70513 106.738 9.53875 106.313 9.44632C105.888 9.35389 105.111 9.29844 103.947 9.29844V20.4085C105.481 20.4085 106.405 20.2791 106.775 20.0388C107.126 19.7985 107.311 19.1145 107.311 18.0053V11.3504H107.292ZM110.675 21.2404C110.528 21.7395 110.25 22.1462 109.862 22.4235C109.474 22.7008 109.012 22.9041 108.439 23.015C107.884 23.1259 107.292 23.1814 106.146 23.1814H100.175V6.54403H103.725C106.017 6.54403 107.311 6.63646 108.106 6.8398C108.919 7.02466 109.529 7.33892 109.954 7.78259C110.38 8.22625 110.638 8.70688 110.749 9.24298C110.86 9.77907 110.897 10.8328 110.897 12.4041V18.2271C110.916 19.7245 110.842 20.7227 110.675 21.2404Z" fill="#456372"/>
</svg>
