<svg width="50" height="50" viewBox="0 0 50 50" fill="none" xmlns="http://www.w3.org/2000/svg">
<path d="M27.9287 42.5936L21.0868 35.9219L35.7807 20.9167L42.8645 27.8594L27.9287 42.5936Z" fill="#8AB4F8"/>
<path d="M27.9579 13.0961L21.1406 6.13544L6.23395 20.901C5.31218 21.8247 4.79449 23.0764 4.79449 24.3813C4.79449 25.6863 5.31218 26.9379 6.23395 27.8616L20.9167 42.6406L27.8594 36.1459L16.6726 24.3813L27.9579 13.0961Z" fill="#4285F4"/>
<path d="M42.7661 21.0152L27.9848 6.23395C27.0568 5.33004 25.81 4.828 24.5146 4.83653C23.2191 4.84506 21.9791 5.36348 21.063 6.27954C20.147 7.1956 19.6286 8.43559 19.62 9.73106C19.6115 11.0265 20.1135 12.2733 21.0175 13.2013L35.7987 27.9825C36.254 28.45 36.7976 28.8223 37.3979 29.0779C37.9982 29.3336 38.6433 29.4674 39.2958 29.4717C39.9483 29.476 40.5951 29.3507 41.1988 29.103C41.8024 28.8553 42.3509 28.4901 42.8122 28.0287C43.2736 27.5674 43.6388 27.0189 43.8865 26.4153C44.1342 25.8116 44.2595 25.1648 44.2552 24.5123C44.2509 23.8598 44.1171 23.2147 43.8615 22.6144C43.6058 22.014 43.2335 21.4705 42.7661 21.0152Z" fill="#8AB4F8"/>
<path d="M24.388 44.2083C27.0473 44.2083 29.2031 42.0525 29.2031 39.3932C29.2031 36.7339 27.0473 34.5781 24.388 34.5781C21.7287 34.5781 19.5729 36.7339 19.5729 39.3932C19.5729 42.0525 21.7287 44.2083 24.388 44.2083Z" fill="#246FDB"/>
</svg>
