<?xml version="1.0" encoding="UTF-8"?>
<svg id="Laag_1" xmlns="http://www.w3.org/2000/svg" version="1.1" viewBox="0 0 50 50">
  <!-- Generator: Adobe Illustrator 29.1.0, SVG Export Plug-In . SVG Version: 2.1.0 Build 142)  -->
  <defs>
    <style>
      .st0 {
        fill: #fefefe;
      }

      .st1 {
        fill: #fc641f;
      }
    </style>
  </defs>
  <path class="st1" d="M24.4.6c19.5-.4,31.8,21.5,21,37.9-9.9,15.1-32.5,14.4-41.5-1.2C-5.4,21.3,6,1,24.4.6Z"/>
  <path class="st0" d="M22.3,3.6c23.9-2.3,33.6,28.7,13.5,40.2C18.9,53.4-.9,37.7,4.2,19.1,6.3,11.2,14,4.4,22.3,3.6Z"/>
  <path class="st1" d="M14.3,23.4c.5,0,21.6,0,22.7,0s.4,3.8.3,4.6c-2,14.7-21.2,14.4-23.3.6-.1-.9-.5-3.5-.4-4.2s.1-.7.7-1Z"/>
  <path class="st1" d="M23.3,21.5c-.5.5-3,.5-3.3-.5s-.2-5.3,0-5.9c.3-1.3,3.1-1.4,3.5-.1s.2,4.5.1,5.5-.3,1-.3,1Z"/>
  <path class="st1" d="M31.3,21.5c-.5.5-3,.5-3.3-.5s-.2-5.3,0-5.9c.3-1.3,3.1-1.4,3.5-.1s.2,4.5.1,5.5-.3,1-.3,1Z"/>
</svg>