<?xml version="1.0" encoding="utf-8"?>
<!-- Generator: Adobe Illustrator 26.3.1, SVG Export Plug-In . SVG Version: 6.00 Build 0)  -->
<svg version="1.1" id="Layer_1" xmlns="http://www.w3.org/2000/svg" xmlns:xlink="http://www.w3.org/1999/xlink" x="0px" y="0px"
	 viewBox="0 0 168 105" style="enable-background:new 0 0 168 105;" xml:space="preserve">
<style type="text/css">
	.st0{fill:#FFFFFF;}
</style>
<g>
	<path class="st0" d="M134.11,97.94c8.84,0,17.04,0,25.38,0c0-17.23,0.82-34.07-0.23-50.8c-1.11-17.64-11.06-30.23-27.39-36.77
		c-16.55-6.62-32.01-3.58-45.73,7.89c-0.72,0.6-1.54,1.07-2.3,1.59c-0.74-0.62-1.25-1.05-1.76-1.48
		C68.57,6.99,53.32,3.82,36.85,10.14C20.4,16.45,10.5,28.86,8.88,46.48C7.76,58.71,8.4,71.1,8.28,83.42
		c-0.05,4.79-0.01,9.57-0.01,14.6c8.8,0,17.01,0,25.68,0c0-1.97,0-3.6,0-5.23c0-13.33-0.04-26.66,0.01-39.98
		C34,41.06,41.51,32.9,52.28,32.77c11.05-0.14,18.83,8,18.9,19.96c0.08,13.33,0.02,26.65,0.02,39.98c0,1.76,0,3.52,0,5.38
		c8.87,0,16.97,0,25.66,0c0-2.06,0-3.85,0-5.63c0-13.33-0.34-26.67,0.2-39.97c0.18-4.38,1.78-9.23,4.22-12.87
		c4.32-6.43,12.84-8.41,20.14-5.93c7.56,2.56,12.57,9.21,12.64,17.39C134.2,66.54,134.11,82.01,134.11,97.94z"/>
	<path d="M134.11,97.94c0-15.93,0.09-31.4-0.04-46.87c-0.07-8.17-5.08-14.83-12.64-17.39c-7.3-2.48-15.82-0.5-20.14,5.93
		c-2.44,3.64-4.04,8.49-4.22,12.87c-0.54,13.31-0.2,26.65-0.2,39.97c0,1.78,0,3.57,0,5.63c-8.69,0-16.79,0-25.66,0
		c0-1.86,0-3.62,0-5.38c0-13.33,0.05-26.66-0.02-39.98c-0.07-11.96-7.84-20.1-18.9-19.96C41.51,32.9,34.01,41.05,33.97,52.8
		c-0.05,13.33-0.01,26.66-0.01,39.98c0,1.63,0,3.26,0,5.23c-8.67,0-16.88,0-25.68,0c0-5.03-0.04-9.82,0.01-14.6
		c0.12-12.32-0.53-24.71,0.6-36.94C10.5,28.86,20.4,16.45,36.84,10.14c16.47-6.32,31.72-3.15,45.23,8.23
		c0.51,0.43,1.02,0.85,1.76,1.48c0.76-0.52,1.58-0.99,2.3-1.59c13.72-11.47,29.18-14.51,45.73-7.89
		c16.34,6.54,26.28,19.13,27.39,36.77c1.05,16.73,0.23,33.57,0.23,50.8C151.15,97.94,142.95,97.94,134.11,97.94z"/>
</g>
</svg>
