<svg width="50" height="50" viewBox="0 0 50 50" fill="none" xmlns="http://www.w3.org/2000/svg">
<path fill-rule="evenodd" clip-rule="evenodd" d="M24.5854 35.2457C15.8233 34.5682 12.9772 29.7336 12.1827 26.3889C12.1827 26.3889 13.8959 26.8553 16.134 27.1636C16.1403 27.1646 16.7391 27.2483 16.7512 27.0879C16.7747 26.779 11.7065 25.2782 9.25087 21.0437C7.33465 17.7392 7.21743 14.5707 7.21743 14.5707C12.3593 15.5693 15.5193 16.8205 31.6963 16.4149C36.7057 16.4149 38.9406 17.4573 38.9406 23.6333C38.9406 27.9461 37.0656 35.1619 24.5854 35.2457ZM47 23.4027C47 22.5944 46.1486 22.0761 45.0959 21.7434L45.1168 21.7218C45.1168 21.7218 45.0539 21.7166 44.9542 21.7002C44.7848 21.6503 44.6114 21.6045 44.436 21.5633C44.1991 21.4753 43.9452 21.3407 43.7549 21.1339C43.5348 20.8949 43.402 20.5908 43.3219 20.3308C42.6542 15.8509 40.1293 11.7523 31.6963 11.7523H17.0492C16.5533 11.7356 15.2073 11.6576 12.0181 11.3065C8.92525 10.966 6.15798 9.98541 6.13224 9.97639L3.41739 9L3.08033 11.9012C3.03935 12.2536 2.15939 20.4368 7.37245 24.5898L7.368 24.6378C7.16755 26.8347 8.00304 31.6274 12.5318 35.504C22.3487 43.9076 35.6911 38.6326 39.1042 34.9361C41.2402 32.6222 42.7724 29.8895 43.3019 26.6099C43.3794 26.337 43.516 26.0004 43.7549 25.7407C43.8585 25.6283 43.9811 25.5381 44.1091 25.464C44.4519 25.3754 44.7937 25.2727 45.1162 25.1528H45.1168C46.1601 24.766 47 24.2054 47 23.4027ZM34.1621 19.213C33.0257 19.213 32.2608 19.9223 32.2608 21.2302C32.2608 22.4492 33.0257 23.1366 34.1621 23.1366C35.2774 23.1366 36.0862 22.405 36.0862 21.208C36.0862 19.9001 35.4083 19.213 34.1621 19.213Z" fill="#3291F0"/>
</svg>
