<svg width="130" height="110" viewBox="0 0 130 110" fill="none" xmlns="http://www.w3.org/2000/svg">
<rect width="130" height="110" fill="white"/>
<g clip-path="url(#clip0_3066_453893)">
<circle cx="65.8286" cy="54.5864" r="37.5019" fill="#E9F6F9"/>
<path d="M65.938 56.6428V12C73.7732 12 81.4723 14.0629 88.2581 17.9805C95.044 21.8981 100.68 27.5339 104.598 34.3193L65.938 56.6428Z" fill="#032F47"/>
<path d="M65.8924 15.751C64.8332 15.751 63.9714 16.6127 63.9714 17.672V24.488C63.9714 25.5473 64.8332 26.409 65.8924 26.409C66.9517 26.409 67.8134 25.5473 67.8134 24.488V17.672C67.8134 16.6127 66.9517 15.751 65.8924 15.751Z" fill="#A8D7F0"/>
<path d="M65.8924 86.877C64.8332 86.877 63.9714 87.7387 63.9714 88.7979V95.614C63.9714 96.6732 64.8332 97.535 65.8924 97.535C66.9517 97.535 67.8134 96.6732 67.8134 95.614V88.7979C67.8134 87.7387 66.9517 86.877 65.8924 86.877Z" fill="#A8D7F0"/>
<path d="M47.5844 28.6469C47.9151 29.2196 48.5312 29.5753 49.1931 29.5753C49.5177 29.5753 49.8382 29.489 50.1202 29.3263C51.0065 28.8145 51.3115 27.6772 50.7997 26.7909L48.6354 23.0425C48.1236 22.1562 46.9863 21.8512 46.1 22.3631C45.6708 22.6108 45.3633 23.011 45.235 23.4902C45.1066 23.9693 45.1724 24.4693 45.4206 24.8985L47.5848 28.6469H47.5844Z" fill="#A8D7F0"/>
<path d="M84.1999 84.6392C83.6881 83.7529 82.5508 83.4479 81.6641 83.9598C80.7778 84.4716 80.4728 85.6089 80.9847 86.4952L83.1489 90.2436C83.4796 90.8163 84.0957 91.172 84.7576 91.172C85.0821 91.172 85.4027 91.0857 85.6847 90.923C86.114 90.6753 86.4214 90.2746 86.5494 89.7959C86.6777 89.3168 86.6119 88.8168 86.3638 88.3876L84.1995 84.6392H84.1999Z" fill="#A8D7F0"/>
<path d="M37.8956 38.3356L34.1472 36.1714C33.718 35.9232 33.2176 35.8578 32.7385 35.9858C32.2598 36.1141 31.8591 36.4212 31.6114 36.8504C31.3637 37.2797 31.2974 37.78 31.4258 38.2592C31.5542 38.7379 31.8612 39.1381 32.2908 39.3862L36.0392 41.5505C36.3213 41.7132 36.6418 41.7994 36.9664 41.7994C37.6278 41.7994 38.2443 41.4438 38.5751 40.871C38.8228 40.4418 38.889 39.9414 38.7607 39.4623C38.6323 38.9832 38.3253 38.5829 37.8956 38.3352V38.3356Z" fill="#A8D7F0"/>
<path d="M93.8891 74.9505L97.6375 77.1147C97.9196 77.2774 98.2401 77.3637 98.5647 77.3637C99.2261 77.3637 99.8426 77.008 100.173 76.4353C100.685 75.549 100.38 74.4113 99.4939 73.8999L95.7455 71.7356C94.8588 71.2238 93.7215 71.5288 93.2101 72.4151C92.9624 72.8443 92.8965 73.3447 93.0245 73.8234C93.1529 74.3025 93.4599 74.7028 93.8895 74.9505H93.8891Z" fill="#A8D7F0"/>
<path d="M26.921 58.5637H33.7371C34.7963 58.5637 35.6581 57.7019 35.6581 56.6427C35.6581 55.5834 34.7963 54.7217 33.7371 54.7217H26.921C25.8618 54.7217 25 55.5834 25 56.6427C25 57.7019 25.8618 58.5637 26.921 58.5637Z" fill="#A8D7F0"/>
<path d="M97.0123 58.5637H103.828C104.888 58.5637 105.749 57.7019 105.749 56.6427C105.749 55.5834 104.888 54.7217 103.828 54.7217H97.0123C95.9531 54.7217 95.0913 55.5834 95.0913 56.6427C95.0913 57.7019 95.9531 58.5637 97.0123 58.5637Z" fill="#A8D7F0"/>
<path d="M37.448 71.5489C36.9688 71.4206 36.4689 71.4864 36.0396 71.7345L32.2913 73.8988C31.862 74.1465 31.5546 74.5471 31.4266 75.0259C31.2983 75.505 31.3641 76.005 31.6122 76.4342C31.943 77.007 32.559 77.3626 33.2209 77.3626C33.5455 77.3626 33.866 77.2764 34.1481 77.1136L37.8964 74.9494C38.3257 74.7017 38.6331 74.3015 38.7615 73.8223C38.8898 73.3432 38.824 72.8432 38.5759 72.414C38.3281 71.9847 37.9279 71.6773 37.4488 71.5489H37.448Z" fill="#A8D7F0"/>
<path d="M94.8178 41.7996C95.1424 41.7996 95.4629 41.7134 95.745 41.5507L99.4934 39.3864C100.38 38.8746 100.685 37.7373 100.173 36.851C99.9251 36.4217 99.5248 36.1143 99.0457 35.986C98.567 35.8576 98.0666 35.9234 97.637 36.1716L93.8886 38.3358C93.4593 38.5835 93.1519 38.9838 93.0235 39.4629C92.8952 39.9416 92.961 40.442 93.2092 40.8716C93.5399 41.4444 94.156 41.8 94.8178 41.8V41.7996Z" fill="#A8D7F0"/>
<path d="M50.1202 83.9596C49.2339 83.4482 48.0962 83.7527 47.5848 84.639L45.4206 88.3874C45.1724 88.8166 45.1066 89.317 45.235 89.7957C45.3633 90.2744 45.6704 90.6751 46.1 90.9228C46.3821 91.0855 46.7026 91.1718 47.0272 91.1718C47.6886 91.1718 48.3051 90.8161 48.6359 90.2434L50.8001 86.495C51.3119 85.6087 51.0069 84.471 50.1207 83.9592L50.1202 83.9596Z" fill="#A8D7F0"/>
<path d="M81.6641 29.325C81.9462 29.4877 82.2667 29.5739 82.5913 29.5739C83.2531 29.5739 83.8692 29.2183 84.1999 28.6455L86.3642 24.8971C86.6123 24.4679 86.6781 23.9675 86.5498 23.4888C86.4214 23.0097 86.1144 22.6094 85.6847 22.3617C85.2555 22.114 84.7551 22.0482 84.276 22.1761C83.7969 22.3045 83.3966 22.6115 83.1489 23.0411L80.9847 26.7895C80.4728 27.6758 80.7778 28.8135 81.6641 29.325Z" fill="#A8D7F0"/>
</g>
<defs>
<clipPath id="clip0_3066_453893">
<rect width="80.75" height="85.5351" fill="white" transform="translate(25 12)"/>
</clipPath>
</defs>
</svg>
