<?xml version="1.0" encoding="utf-8"?>
<!-- Generator: Adobe Illustrator 26.3.1, SVG Export Plug-In . SVG Version: 6.00 Build 0)  -->
<svg version="1.1" id="Layer_1" xmlns="http://www.w3.org/2000/svg" xmlns:xlink="http://www.w3.org/1999/xlink" x="0px" y="0px"
	 viewBox="0 0 157.23 150" style="enable-background:new 0 0 157.23 150;" xml:space="preserve">
<style type="text/css">
	.st0{fill:#6771E4;}
	.st1{fill:#FEFEFE;}
	.st2{fill:#969EEC;}
	.st3{fill:#8B94EB;}
	.st4{fill:#8D95EB;}
</style>
<g>
	<path class="st0" d="M16.71,109.87c0-23.97,0-47.94,0-71.91c0.29-0.89,0.19-1.82,0.29-2.73c0.51-4.55,2.64-8.36,5.42-11.86
		c3.45-4.32,7.82-7.33,13.06-9.12c2.46-0.84,5-0.99,7.53-1c23.56-0.05,47.12-0.05,70.68-0.02c11.04,0.01,18.7,5.58,24,14.89
		c1.97,3.45,2.67,7.21,2.67,11.12c0.02,23.92-0.01,47.84,0.02,71.77c0.01,6.91-2.68,12.64-7.31,17.6
		c-3.17,3.39-6.97,5.78-11.31,7.35c-1.72,0.62-3.52,0.62-5.3,0.81c-0.2,0.02-0.4-0.01-0.58,0.12c-0.24,0-0.48,0-0.72,0
		c-0.48-0.19-0.97-0.19-1.45,0c-23.49,0-46.97,0-70.46,0c-0.48-0.19-0.97-0.19-1.45,0c-0.32,0-0.64,0-0.97,0
		c-1.54-0.36-3.17-0.18-4.68-0.67c-9.43-3.08-15.7-9.36-18.78-18.79c-0.54-1.66-0.34-3.45-0.68-5.15c0-0.32,0-0.64,0-0.97
		C16.91,110.84,16.91,110.35,16.71,109.87z"/>
	<path class="st1" d="M115.89,136.9c1.12-0.55,2.38-0.54,3.56-0.86c12.33-3.27,20.77-14.06,20.8-26.81
		c0.04-22.72,0.04-45.45,0-68.17c-0.03-13.23-9.32-24.53-22.22-27.14c-2.13-0.43-4.3-0.58-6.48-0.58c-22.04,0-44.08-0.03-66.11,0.01
		c-10.97,0.02-19.43,4.65-25.09,14.13c-1.66,2.78-2.7,5.82-3.2,9.03c-0.08,0.49,0,1.05-0.43,1.44c0-8,0.01-16-0.02-24
		c0-0.69,0.1-0.88,0.85-0.88c40.68,0.02,81.37,0.02,122.05,0.02c0.56,0,0.94-0.11,0.94,0.79c-0.04,41-0.03,82.01-0.03,123.01
		C132.29,136.9,124.09,136.9,115.89,136.9z"/>
	<path class="st1" d="M16.71,112.28c0.45,0.7,0.38,1.52,0.53,2.29c2.07,11.04,11.26,20.01,22.41,21.92c0.4,0.07,0.9-0.03,1.19,0.41
		c-7.74,0-15.49-0.01-23.23,0.02c-0.75,0-0.92-0.17-0.92-0.92C16.73,128.09,16.71,120.19,16.71,112.28z"/>
	<path class="st2" d="M16.71,109.87c0.29,0.48,0.37,0.97,0,1.45C16.71,110.84,16.71,110.35,16.71,109.87z"/>
	<path class="st3" d="M41.81,136.9c0.48-0.33,0.97-0.31,1.45,0C42.78,136.9,42.29,136.9,41.81,136.9z"/>
	<path class="st4" d="M113.72,136.9c0.48-0.3,0.97-0.35,1.45,0C114.68,136.9,114.2,136.9,113.72,136.9z"/>
	<path class="st1" d="M55.19,96.16c0-2.57-0.01-5.15,0-7.72c0-1.29,0.02-1.3,1.15-0.69c6.04,3.24,12.47,5.09,19.31,5.49
		c1.74,0.1,3.46-0.02,5.08-0.74c2.66-1.19,3.32-4.37,1.32-6.51c-1.09-1.17-2.5-1.87-3.94-2.5c-3.65-1.59-7.49-2.67-11.11-4.33
		c-3.43-1.57-6.65-3.46-9.02-6.47c-3.31-4.21-3.88-9.09-3.02-14.18c1.47-8.69,6.91-13.87,15.11-16.19
		c9.46-2.67,18.78-1.48,27.93,1.75c0.61,0.21,0.75,0.57,0.75,1.17c-0.02,5.23-0.03,10.46,0.01,15.68c0.01,0.97-0.33,0.83-0.96,0.52
		c-5.47-2.74-11.29-4.12-17.39-4.37c-1.29-0.05-2.58,0.08-3.8,0.47c-1.56,0.51-2.65,1.49-2.89,3.21c-0.22,1.63,0.53,2.8,1.79,3.69
		c2.27,1.6,4.93,2.32,7.5,3.22c3.94,1.39,7.88,2.75,11.4,5.1c5.6,3.74,7.89,9.06,7.78,15.64c-0.17,10.51-6.65,17.2-16.07,19.68
		c-10.33,2.72-20.39,1.25-30.2-2.64c-0.68-0.27-0.73-0.73-0.73-1.32C55.2,101.47,55.19,98.82,55.19,96.16z"/>
</g>
</svg>
