<svg width="130" height="110" viewBox="0 0 130 110" fill="none" xmlns="http://www.w3.org/2000/svg">
<rect width="130" height="110" fill="white"/>
<path d="M32.1189 80.548L66.0725 98.322L98.7368 80.548V11.0439H32.1189V80.548Z" fill="#E9F6F9"/>
<path d="M99.4246 11.3091L31.4312 81.7857L66.6743 99.7364L99.4246 82.4931V11.3091Z" fill="#A8D7F0"/>
<path d="M29.8838 34.2123V82.0517L31.0872 82.6707L65.0409 100.445L66.0724 100.975L67.1039 100.445L99.8541 82.6707L101.058 82.0517V8.74512H29.8838V34.2123ZM32.1187 80.7253V11.0442H98.8226V80.7253L66.0724 98.4992L32.1187 80.7253Z" fill="#A8D7F0"/>
<path d="M65.471 26.7843L73.6371 22.0092V8.74512H57.219V21.9208L65.471 26.7843Z" fill="#F06600"/>
<path d="M102.691 58.0874H28.2507L25.5 64.2773L28.2507 70.4673H102.691L105.355 64.2773L102.691 58.0874Z" fill="#032F47"/>
<path d="M44.4409 60.4488L43.4892 62.4058L41.36 62.7207C40.9782 62.7769 40.8252 63.2543 41.1021 63.5277L42.6425 65.0502L42.2782 67.2008C42.2126 67.5896 42.6163 67.8807 42.9544 67.6989L44.8591 66.6835L46.7639 67.6989C47.102 67.8793 47.5057 67.5896 47.4401 67.2008L47.0758 65.0502L48.6162 63.5277C48.8931 63.2543 48.7401 62.7769 48.3583 62.7207L46.2291 62.4058L45.2774 60.4488C45.1069 60.1 44.6129 60.0956 44.4409 60.4488Z" fill="#F2C94C"/>
<path d="M54.9022 60.4488L54.0237 62.4058L52.0583 62.7207C51.7058 62.7769 51.5646 63.2543 51.8202 63.5277L53.2421 65.0502L52.9058 67.2008C52.8453 67.5896 53.2179 67.8807 53.53 67.6989L55.2883 66.6835L57.0465 67.6989C57.3586 67.8793 57.7313 67.5896 57.6707 67.2008L57.3344 65.0502L58.7563 63.5277C59.0119 63.2543 58.8707 62.7769 58.5182 62.7207L56.5528 62.4058L55.6744 60.4488C55.517 60.1 55.0609 60.0956 54.9022 60.4488Z" fill="#F2C94C"/>
<path d="M65.2658 60.4488L64.3142 62.4058L62.185 62.7207C61.8031 62.7769 61.6501 63.2543 61.927 63.5277L63.4674 65.0502L63.1031 67.2008C63.0375 67.5896 63.4412 67.8807 63.7793 67.6989L65.6841 66.6835L67.5889 67.6989C67.927 67.8793 68.3307 67.5896 68.2651 67.2008L67.9007 65.0502L69.4412 63.5277C69.7181 63.2543 69.5651 62.7769 69.1832 62.7207L67.054 62.4058L66.1024 60.4488C65.9319 60.1 65.4378 60.0956 65.2658 60.4488Z" fill="#F2C94C"/>
<path d="M75.7271 60.4488L74.8487 62.4058L72.8833 62.7207C72.5308 62.7769 72.3895 63.2543 72.6451 63.5277L74.0671 65.0502L73.7308 67.2008C73.6702 67.5896 74.0429 67.8807 74.355 67.6989L76.1132 66.6835L77.8715 67.6989C78.1836 67.8793 78.5562 67.5896 78.4957 67.2008L78.1594 65.0502L79.5813 63.5277C79.8369 63.2543 79.6956 62.7769 79.3432 62.7207L77.3778 62.4058L76.4993 60.4488C76.3419 60.1 75.8859 60.0956 75.7271 60.4488Z" fill="#F2C94C"/>
<path d="M86.091 60.4488L85.1394 62.4058L83.0102 62.7207C82.6283 62.7769 82.4753 63.2543 82.7522 63.5277L84.2926 65.0502L83.9283 67.2008C83.8627 67.5896 84.2664 67.8807 84.6045 67.6989L86.5093 66.6835L88.4141 67.6989C88.7522 67.8793 89.1559 67.5896 89.0903 67.2008L88.7259 65.0502L90.2664 63.5277C90.5433 63.2543 90.3903 62.7769 90.0084 62.7207L87.8792 62.4058L86.9276 60.4488C86.757 60.1 86.263 60.0956 86.091 60.4488Z" fill="#F2C94C"/>
</svg>
