<svg width="159" height="39" viewBox="0 0 159 39" fill="none" xmlns="http://www.w3.org/2000/svg">
<path d="M41.6729 13.7192H57.7129V16.6889H51.3973V33.4293H47.9356V16.6889H41.6465L41.6729 13.7192ZM57.0258 19.1592H59.9854V21.9186H60.0383C60.144 21.5244 60.329 21.1565 60.5932 20.7886C60.8575 20.4207 61.1746 20.079 61.5709 19.7899C61.9409 19.4746 62.3637 19.2381 62.8393 19.0541C63.2886 18.8701 63.7642 18.765 64.2399 18.765C64.6098 18.765 64.8741 18.7913 65.0062 18.7913C65.1383 18.8176 65.2969 18.8439 65.429 18.8439V21.8661C65.2176 21.8135 64.9798 21.7872 64.742 21.7609C64.5041 21.7347 64.2927 21.7084 64.0549 21.7084C63.5264 21.7084 63.0243 21.8135 62.5487 22.0237C62.073 22.234 61.6766 22.5493 61.3067 22.9435C60.9632 23.364 60.6725 23.8634 60.4611 24.4678C60.2497 25.0722 60.144 25.7818 60.144 26.5702V33.3505H56.973L57.0258 19.1592ZM79.9628 33.4293H76.8446V31.432H76.7918C76.3954 32.1679 75.814 32.7198 75.0477 33.1665C74.2814 33.6133 73.4886 33.8235 72.6959 33.8235C70.8197 33.8235 69.4456 33.3767 68.6 32.4307C67.7544 31.5109 67.3316 30.0917 67.3316 28.2259V19.1592H70.5026V27.9105C70.5026 29.1719 70.7404 30.0655 71.2425 30.5648C71.7182 31.0904 72.4052 31.3532 73.2772 31.3532C73.9379 31.3532 74.4928 31.2481 74.942 31.0378C75.3912 30.8276 75.7612 30.5648 76.0254 30.2231C76.3161 29.8815 76.5011 29.461 76.6332 28.988C76.7653 28.5149 76.8182 27.9893 76.8182 27.4374V19.1592H79.9892V33.4293H79.9628ZM85.3535 28.8566C85.4592 29.7764 85.8027 30.4071 86.4105 30.8013C87.0182 31.1692 87.7581 31.3532 88.6037 31.3532C88.8944 31.3532 89.2379 31.3269 89.6079 31.2743C89.9778 31.2218 90.3478 31.1429 90.6649 31.0115C91.0084 30.8801 91.2727 30.6962 91.4841 30.4334C91.6955 30.1706 91.8012 29.8552 91.7747 29.461C91.7483 29.0668 91.6162 28.7252 91.3255 28.4624C91.0349 28.1996 90.6913 28.0156 90.2685 27.8316C89.8457 27.674 89.3436 27.5426 88.7887 27.4374C88.2338 27.3323 87.6789 27.2009 87.0975 27.0695C86.5162 26.9381 85.9348 26.7804 85.3799 26.5965C84.825 26.4125 84.3493 26.176 83.9001 25.8344C83.4773 25.519 83.1073 25.1248 82.8695 24.6255C82.6053 24.1262 82.4731 23.548 82.4731 22.8121C82.4731 22.0237 82.6581 21.393 83.0545 20.8674C83.4244 20.3418 83.9265 19.9213 84.5079 19.606C85.0892 19.2906 85.7498 19.0541 86.4633 18.9227C87.1768 18.7913 87.8638 18.7387 88.498 18.7387C89.2379 18.7387 89.9514 18.8176 90.612 18.9753C91.2727 19.1329 91.9069 19.3695 92.4354 19.7374C92.9903 20.079 93.4395 20.5521 93.7831 21.1039C94.153 21.6558 94.3644 22.3391 94.4701 23.1275H91.167C91.0084 22.3654 90.6649 21.8661 90.1364 21.6033C89.5815 21.3405 88.9737 21.2091 88.2602 21.2091C88.0488 21.2091 87.7581 21.2353 87.4675 21.2616C87.1504 21.3142 86.8861 21.3667 86.5954 21.4719C86.3312 21.577 86.0934 21.7347 85.9084 21.9186C85.7234 22.1026 85.6177 22.3654 85.6177 22.6807C85.6177 23.0749 85.7498 23.364 86.0141 23.6006C86.2783 23.8371 86.6219 24.021 87.0711 24.205C87.4939 24.3627 87.996 24.4941 88.5509 24.5992C89.1058 24.7043 89.6872 24.8357 90.2685 24.9671C90.8499 25.0985 91.4048 25.2562 91.9597 25.4402C92.5146 25.6241 93.0167 25.8606 93.4395 26.2023C93.8623 26.5176 94.2323 26.9118 94.4965 27.3849C94.7608 27.8579 94.8929 28.4624 94.8929 29.1457C94.8929 29.9866 94.7079 30.6962 94.3116 31.3006C93.9152 31.8788 93.4131 32.3781 92.8053 32.746C92.1976 33.114 91.4841 33.3768 90.7442 33.5607C89.9778 33.7184 89.2379 33.8235 88.498 33.8235C87.5996 33.8235 86.754 33.7184 85.9877 33.5082C85.2213 33.2979 84.5343 32.9825 83.9794 32.5883C83.4244 32.1679 82.9752 31.6685 82.6581 31.0378C82.341 30.4334 82.156 29.6975 82.1296 28.8303H85.327V28.8566H85.3535ZM95.7914 19.1592H98.196V14.8493H101.367V19.1329H104.221V21.4719H101.367V29.0931C101.367 29.4347 101.393 29.6975 101.42 29.9603C101.446 30.1969 101.526 30.4071 101.605 30.5648C101.711 30.7225 101.869 30.8539 102.054 30.9327C102.265 31.0115 102.53 31.0641 102.9 31.0641C103.111 31.0641 103.349 31.0641 103.56 31.0378C103.772 31.0115 104.01 30.9853 104.221 30.9327V33.3768C103.877 33.4293 103.534 33.4556 103.19 33.4819C102.847 33.5344 102.53 33.5344 102.16 33.5344C101.314 33.5344 100.654 33.4556 100.151 33.2979C99.6494 33.1402 99.253 32.9037 98.9624 32.6146C98.6717 32.2993 98.4867 31.9313 98.381 31.4846C98.2753 31.0378 98.2225 30.4859 98.196 29.9078V21.4981H95.7914V19.1067V19.1592ZM106.441 19.1592H109.427V21.1039H109.48C109.929 20.263 110.537 19.6848 111.329 19.3169C112.122 18.949 112.968 18.765 113.919 18.765C115.055 18.765 116.033 18.949 116.879 19.3695C117.724 19.7637 118.411 20.2893 118.966 20.9988C119.521 21.6821 119.944 22.4968 120.208 23.4166C120.472 24.3364 120.631 25.335 120.631 26.36C120.631 27.3323 120.499 28.2521 120.261 29.1457C119.997 30.0392 119.627 30.8539 119.125 31.5371C118.623 32.2204 117.988 32.7723 117.196 33.1928C116.403 33.6133 115.504 33.8235 114.447 33.8235C113.998 33.8235 113.523 33.771 113.073 33.6921C112.624 33.6133 112.175 33.4819 111.752 33.2979C111.329 33.114 110.933 32.8774 110.589 32.5883C110.219 32.2993 109.929 31.9576 109.691 31.5897H109.638V38.7116H106.467V19.1592H106.441ZM117.513 26.3074C117.513 25.6767 117.433 25.046 117.248 24.4415C117.09 23.8371 116.826 23.3115 116.482 22.8384C116.139 22.3654 115.716 21.9975 115.24 21.7084C114.738 21.4193 114.157 21.2879 113.523 21.2879C112.201 21.2879 111.197 21.7347 110.51 22.6545C109.849 23.5743 109.506 24.8094 109.506 26.3337C109.506 27.0695 109.585 27.7265 109.77 28.331C109.955 28.9354 110.193 29.461 110.563 29.9078C110.906 30.3545 111.329 30.6962 111.831 30.959C112.333 31.2218 112.888 31.3532 113.549 31.3532C114.289 31.3532 114.87 31.1955 115.372 30.9064C115.874 30.6173 116.271 30.2231 116.614 29.7764C116.931 29.3033 117.169 28.7777 117.301 28.1733C117.433 27.5426 117.513 26.9381 117.513 26.3074ZM123.088 13.7192H126.259V16.6889H123.088V13.7192ZM123.088 19.1592H126.259V33.4293H123.088V19.1592ZM129.087 13.7192H132.258V33.4293H129.087V13.7192ZM141.929 33.8235C140.793 33.8235 139.763 33.6396 138.864 33.2454C137.966 32.8511 137.226 32.3518 136.592 31.6948C135.984 31.0378 135.508 30.2231 135.191 29.3033C134.874 28.3835 134.689 27.3586 134.689 26.2811C134.689 25.2036 134.848 24.205 135.191 23.2852C135.508 22.3654 135.984 21.577 136.592 20.8937C137.199 20.2367 137.966 19.7111 138.864 19.3432C139.763 18.9753 140.793 18.765 141.929 18.765C143.066 18.765 144.096 18.949 144.995 19.3432C145.893 19.7111 146.633 20.2367 147.267 20.8937C147.875 21.5507 148.351 22.3654 148.668 23.2852C148.985 24.205 149.17 25.2036 149.17 26.2811C149.17 27.3849 149.011 28.3835 148.668 29.3033C148.324 30.2231 147.875 31.0115 147.267 31.6948C146.66 32.3518 145.893 32.8774 144.995 33.2454C144.096 33.6133 143.092 33.8235 141.929 33.8235ZM141.929 31.3269C142.616 31.3269 143.251 31.1692 143.753 30.8801C144.281 30.5911 144.678 30.1969 145.021 29.7238C145.365 29.2508 145.603 28.6989 145.761 28.1207C145.92 27.5163 145.999 26.9118 145.999 26.2811C145.999 25.6767 145.92 25.0722 145.761 24.4678C145.603 23.8634 145.365 23.3378 145.021 22.8647C144.678 22.3917 144.255 22.0238 143.753 21.7347C143.224 21.4456 142.616 21.2879 141.929 21.2879C141.242 21.2879 140.608 21.4456 140.106 21.7347C139.578 22.0238 139.181 22.4179 138.838 22.8647C138.494 23.3378 138.256 23.8634 138.098 24.4678C137.939 25.0722 137.86 25.6767 137.86 26.2811C137.86 26.9118 137.939 27.5163 138.098 28.1207C138.256 28.7252 138.494 29.2508 138.838 29.7238C139.181 30.1969 139.604 30.5911 140.106 30.8801C140.635 31.1955 141.242 31.3269 141.929 31.3269ZM150.121 19.1592H152.526V14.8493H155.697V19.1329H158.551V21.4719H155.697V29.0931C155.697 29.4347 155.723 29.6975 155.75 29.9603C155.776 30.1969 155.855 30.4071 155.935 30.5648C156.04 30.7225 156.199 30.8539 156.384 30.9327C156.595 31.0115 156.86 31.0641 157.23 31.0641C157.441 31.0641 157.679 31.0641 157.89 31.0378C158.102 31.0115 158.339 30.9853 158.551 30.9327V33.3768C158.207 33.4293 157.864 33.4556 157.52 33.4819C157.177 33.5344 156.86 33.5344 156.49 33.5344C155.644 33.5344 154.983 33.4556 154.481 33.2979C153.979 33.1402 153.583 32.9037 153.292 32.6146C153.002 32.2993 152.817 31.9313 152.711 31.4846C152.605 31.0378 152.552 30.4859 152.526 29.9078V21.4981H150.121V19.1067V19.1592Z" fill="black"/>
<path d="M37.9728 13.7182H23.4654L18.9996 0L14.5073 13.7182L0 13.692L11.7327 22.1804L7.24046 35.8987L18.9732 27.4102L30.7059 35.8987L26.2401 22.1804L37.9728 13.7182Z" fill="#00B67A"/>
<path d="M27.2446 25.2817L26.2405 22.1807L19 27.4104L27.2446 25.2817Z" fill="#005128"/>
</svg>
