<svg width="179" height="32" viewBox="0 0 179 32" fill="none" xmlns="http://www.w3.org/2000/svg">
<path d="M40.8967 11.0222C40.8967 10.9867 40.8967 10.9511 40.8967 10.88C40.8967 10.8089 40.9325 10.7378 40.9684 10.7022C41.04 10.6311 41.1116 10.5955 41.219 10.5955H42.7947C42.8664 10.5955 42.938 10.6311 42.9738 10.6667C43.0454 10.7022 43.0812 10.7733 43.0812 10.8444L44.8718 17.6355H44.9434L47.6651 10.5955C47.7009 10.4889 47.8083 10.4178 47.9516 10.4178H48.2739C48.4171 10.4178 48.5246 10.4889 48.5604 10.5955L51.3179 17.6355H51.3895L53.1442 10.8444C53.1442 10.7733 53.2159 10.7378 53.2517 10.6667C53.3233 10.6311 53.3591 10.5955 53.4307 10.5955H55.0064C55.1497 10.5955 55.2213 10.6311 55.2929 10.7022C55.3287 10.7378 55.3646 10.8089 55.3287 10.88C55.3287 10.9155 55.3287 10.9511 55.3287 11.0222L52.0699 22.4711C52.0699 22.5422 51.9983 22.5778 51.9625 22.6489C51.8909 22.6844 51.8192 22.72 51.7834 22.72H51.4969C51.3537 22.72 51.2462 22.6489 51.2104 22.5422L48.1306 14.8267H48.0232L44.9792 22.5422C44.9076 22.6489 44.836 22.72 44.6927 22.72H44.4063C44.3346 22.72 44.263 22.6844 44.2272 22.6489C44.1556 22.6133 44.1198 22.5422 44.1198 22.4711L40.8967 11.0222Z" fill="black"/>
<path d="M59.0531 22.2222V10.9155C59.0531 10.8444 59.0889 10.7378 59.1605 10.7022C59.2322 10.6311 59.3038 10.5955 59.4112 10.5955H66.3944C66.5019 10.5955 66.5735 10.6311 66.6451 10.7022C66.7168 10.7733 66.7526 10.8444 66.7526 10.9155V12.3022C66.7526 12.3733 66.7168 12.48 66.6451 12.5155C66.5735 12.5867 66.5019 12.6222 66.3944 12.6222H61.3092V15.4311H65.535C65.6066 15.4311 65.6782 15.4667 65.7498 15.5378C65.8215 15.6089 65.8573 15.68 65.8573 15.7511V17.1733C65.8573 17.28 65.8215 17.3511 65.7498 17.3867C65.6782 17.4578 65.6066 17.4933 65.535 17.4933H61.3092V20.48H66.3944C66.5019 20.48 66.5735 20.5155 66.6451 20.5867C66.7168 20.6578 66.7526 20.7289 66.7526 20.8V22.1867C66.7526 22.2578 66.7168 22.3644 66.6451 22.4C66.5735 22.4711 66.5019 22.5067 66.3944 22.5067H59.4112C59.3038 22.5067 59.2322 22.4711 59.1605 22.4C59.0889 22.4 59.0531 22.2933 59.0531 22.2222Z" fill="black"/>
<path d="M70.871 22.2222V10.9155C70.871 10.8444 70.9068 10.7378 70.9784 10.7022C71.05 10.6311 71.1217 10.5955 71.1933 10.5955H75.0967C76.0994 10.5955 76.9589 10.9155 77.6393 11.52C78.3198 12.1244 78.6779 12.8711 78.6779 13.76C78.6779 14.3644 78.4988 14.8978 78.1049 15.3955C77.711 15.8933 77.317 16.2489 76.8515 16.4622C77.1022 16.5333 77.317 16.64 77.5677 16.8178C77.8184 16.96 78.0333 17.1378 78.2481 17.3867C78.463 17.6 78.6421 17.8844 78.7853 18.2044C78.9286 18.5244 79.0002 18.88 79.0002 19.2355C79.0002 20.1955 78.6421 20.9778 77.9258 21.6178C77.2096 22.2578 76.3501 22.5778 75.3116 22.5778H71.1933C71.0858 22.5778 71.0142 22.5422 70.9784 22.4711C70.9068 22.4 70.871 22.2933 70.871 22.2222ZM73.1271 15.6089H74.9535C75.3832 15.6089 75.7413 15.4667 76.0278 15.1822C76.3143 14.8978 76.4576 14.5067 76.4576 14.08C76.4576 13.6533 76.3143 13.2978 76.0636 13.0489C75.7771 12.7644 75.419 12.6578 74.9893 12.6578H73.1629V15.6089H73.1271ZM73.1271 20.48H75.2042C75.6339 20.48 75.992 20.3378 76.3143 20.0533C76.6008 19.7689 76.7799 19.3778 76.7799 18.9511C76.7799 18.5244 76.6008 18.1689 76.2427 17.8844C75.8846 17.6 75.4907 17.4578 75.0251 17.4578H73.1629V20.48H73.1271Z" fill="black"/>
<path d="M83.1901 22.2222V10.9155C83.1901 10.8444 83.2259 10.7733 83.2975 10.7022C83.3691 10.6311 83.4407 10.5955 83.5124 10.5955H85.0881C85.1597 10.5955 85.2313 10.6311 85.3029 10.7022C85.3746 10.7733 85.4104 10.8444 85.4104 10.9155V22.2222C85.4104 22.2933 85.3746 22.3644 85.3029 22.4355C85.2313 22.5067 85.1597 22.5422 85.0881 22.5422H83.5124C83.4407 22.5422 83.3691 22.5067 83.2975 22.4355C83.2259 22.3644 83.1901 22.2933 83.1901 22.2222Z" fill="black"/>
<path d="M90.2808 22.2222V10.7378C90.2808 10.6667 90.3166 10.5955 90.3882 10.5244C90.4598 10.4533 90.5314 10.4178 90.6031 10.4178H91.0328L98.1951 17.9555V10.9155C98.1951 10.8444 98.2309 10.7378 98.3025 10.7022C98.3742 10.6311 98.4458 10.5955 98.5532 10.5955H100.129C100.201 10.5955 100.272 10.6311 100.344 10.7022C100.415 10.7733 100.451 10.8444 100.451 10.9155V22.4C100.451 22.4711 100.415 22.5422 100.344 22.6133C100.272 22.6844 100.201 22.6844 100.129 22.6844H99.735L92.5727 14.8622V22.1867C92.5727 22.2578 92.5369 22.3644 92.4653 22.4C92.3936 22.4711 92.322 22.5067 92.2146 22.5067H90.6031C90.5314 22.5067 90.4598 22.4711 90.3882 22.4C90.3166 22.3644 90.2808 22.2933 90.2808 22.2222Z" fill="black"/>
<path d="M103.71 22.08L109.046 10.5955C109.118 10.4889 109.189 10.4178 109.332 10.4178H109.511C109.655 10.4178 109.726 10.4889 109.798 10.5955L115.098 22.08C115.134 22.1155 115.134 22.1867 115.134 22.2222C115.134 22.2933 115.134 22.3289 115.098 22.4C115.026 22.5067 114.955 22.5422 114.812 22.5422H113.307C113.164 22.5422 113.093 22.5067 113.021 22.4711C112.949 22.4 112.878 22.3289 112.806 22.1867L111.982 20.3022H106.861L106.002 22.1867C105.93 22.4355 105.751 22.5422 105.501 22.5422H103.996C103.853 22.5422 103.782 22.5067 103.71 22.4C103.674 22.3644 103.674 22.2933 103.674 22.2222C103.71 22.1867 103.71 22.1511 103.71 22.08ZM107.685 18.4889H111.159L109.44 14.72H109.404L107.685 18.4889Z" fill="black"/>
<path d="M118.393 22.2222V10.9155C118.393 10.8444 118.429 10.7378 118.5 10.7022C118.572 10.6311 118.643 10.5955 118.751 10.5955H123.657C124.696 10.5955 125.591 10.9511 126.307 11.6622C127.023 12.3733 127.417 13.2622 127.417 14.2578C127.417 15.04 127.166 15.7155 126.701 16.32C126.235 16.9244 125.627 17.3867 124.839 17.7067L127.202 22.0089C127.274 22.1155 127.274 22.2222 127.202 22.3289C127.131 22.4355 127.059 22.5067 126.916 22.5067H125.125C124.982 22.5067 124.91 22.4711 124.839 22.3644L122.547 17.8489H120.649V22.1867C120.649 22.2578 120.613 22.3289 120.541 22.4C120.47 22.4711 120.398 22.5067 120.327 22.5067H118.751C118.643 22.5067 118.572 22.4711 118.5 22.4C118.429 22.4 118.393 22.2933 118.393 22.2222ZM120.649 16.0355H123.442C123.908 16.0355 124.302 15.8578 124.624 15.5378C124.946 15.1822 125.125 14.7911 125.125 14.2933C125.125 13.8311 124.946 13.44 124.624 13.12C124.302 12.8 123.872 12.6222 123.442 12.6222H120.649V16.0355Z" fill="black"/>
<path d="M132.681 20.9422C131.464 19.7689 130.855 18.3111 130.855 16.6044C130.855 14.8978 131.464 13.44 132.681 12.2311C133.899 11.0222 135.367 10.4178 137.086 10.4178C138.626 10.4178 139.987 10.9511 141.24 12.0178C141.384 12.1955 141.419 12.3378 141.24 12.48L140.775 12.9422C140.632 13.0844 140.488 13.0844 140.345 12.9422C139.88 12.5511 139.378 12.2311 138.805 11.9822C138.232 11.7333 137.659 11.6267 137.086 11.6267C135.761 11.6267 134.615 12.1244 133.684 13.0844C132.753 14.0444 132.288 15.1822 132.288 16.5333C132.288 17.8489 132.753 19.0222 133.684 19.9822C134.615 20.9778 135.725 21.44 137.086 21.44C137.659 21.44 138.196 21.3689 138.698 21.2622C139.199 21.1555 139.593 21.0133 139.808 20.9067L140.166 20.7289V18.3467H138.196C138.089 18.3467 138.017 18.3111 137.982 18.2755C137.91 18.2044 137.874 18.1333 137.874 18.0622V17.4222C137.874 17.2089 137.982 17.1022 138.196 17.1022H141.169C141.24 17.1022 141.312 17.1378 141.384 17.2089C141.455 17.28 141.491 17.3511 141.491 17.4222V21.3333C141.491 21.44 141.455 21.5467 141.348 21.6178L140.846 21.9022C140.488 22.08 139.987 22.2933 139.271 22.4711C138.555 22.6489 137.838 22.7555 137.122 22.7555C135.332 22.72 133.863 22.1155 132.681 20.9422Z" fill="black"/>
<path d="M146.039 22.2222V10.9155C146.039 10.8089 146.075 10.7378 146.147 10.7022C146.218 10.6311 146.29 10.5955 146.361 10.5955H153.13C153.237 10.5955 153.309 10.6311 153.345 10.7022C153.416 10.7733 153.452 10.8444 153.452 10.9155V11.4133C153.452 11.52 153.416 11.5911 153.345 11.6267C153.273 11.6978 153.202 11.7333 153.13 11.7333H147.364V15.8933H152.306C152.414 15.8933 152.485 15.9289 152.521 16C152.593 16.0711 152.629 16.1422 152.629 16.2133V16.7111C152.629 16.8178 152.593 16.8889 152.521 16.9244C152.449 16.9955 152.378 17.0311 152.306 17.0311H147.364V21.3689H153.13C153.237 21.3689 153.309 21.4044 153.345 21.4755C153.416 21.5467 153.452 21.6178 153.452 21.6889V22.1867C153.452 22.2933 153.416 22.3644 153.345 22.4C153.273 22.4711 153.202 22.5067 153.13 22.5067H146.361C146.254 22.5067 146.182 22.4711 146.147 22.4C146.075 22.4 146.039 22.3289 146.039 22.2222Z" fill="black"/>
<path d="M157.929 22.2222V10.9155C157.929 10.8089 157.964 10.7378 158.036 10.7022C158.108 10.6311 158.179 10.5955 158.251 10.5955H165.019C165.127 10.5955 165.198 10.6311 165.234 10.7022C165.306 10.7733 165.342 10.8444 165.342 10.9155V11.4133C165.342 11.52 165.306 11.5911 165.234 11.6267C165.163 11.6978 165.091 11.7333 165.019 11.7333H159.254V15.8933H164.196C164.303 15.8933 164.375 15.9289 164.41 16C164.482 16.0711 164.518 16.1422 164.518 16.2133V16.7111C164.518 16.8178 164.482 16.8889 164.41 16.9244C164.339 16.9955 164.267 17.0311 164.196 17.0311H159.254V21.3689H165.019C165.127 21.3689 165.198 21.4044 165.234 21.4755C165.306 21.5467 165.342 21.6178 165.342 21.6889V22.1867C165.342 22.2933 165.306 22.3644 165.234 22.4C165.163 22.4711 165.091 22.5067 165.019 22.5067H158.251C158.143 22.5067 158.072 22.4711 158.036 22.4C157.964 22.4 157.929 22.3289 157.929 22.2222Z" fill="black"/>
<path d="M169.818 22.1511V11.0222C169.818 10.9155 169.854 10.8089 169.925 10.7378C169.997 10.6666 170.104 10.6311 170.212 10.6311H170.713C170.821 10.6311 170.928 10.6666 171 10.7378C171.071 10.8089 171.107 10.9155 171.107 11.0222V15.8578L176.479 10.8089C176.586 10.7022 176.694 10.6311 176.801 10.6311H177.661C177.804 10.6311 177.911 10.7022 177.983 10.8444C178.019 10.9866 177.983 11.1289 177.876 11.2355L172.432 16.2844L178.126 22.08C178.198 22.1511 178.234 22.2222 178.162 22.4C178.126 22.5422 177.983 22.6133 177.84 22.6133H176.98C176.837 22.6133 176.73 22.5778 176.658 22.5066L171.143 16.7111V22.1511C171.143 22.2578 171.107 22.3644 171.036 22.4355C170.964 22.5066 170.857 22.5422 170.749 22.5422H170.248C170.14 22.5422 170.033 22.5066 169.961 22.4355C169.854 22.3289 169.818 22.2578 169.818 22.1511Z" fill="black"/>
<path d="M16.1152 32C11.3523 32 6.84004 29.9022 3.76025 26.2756C7.95019 26.2045 10.8867 24.8533 12.2476 24.1067V24.0711C12.2476 24.0711 12.2476 24.0711 12.2118 24.0711L11.603 24.3911C11.5313 24.4267 11.4597 24.4622 11.3881 24.4622C11.4239 24.4622 11.4597 24.4267 11.4955 24.4267L25.1039 17.2089C25.462 16.9956 25.6769 16.7467 25.7127 16.4978C26.4647 17.9556 27.1093 22.1511 19.6605 31.6445C18.5504 31.8578 17.3328 32 16.1152 32Z" fill="url(#paint0_linear_1268_76715)"/>
<path d="M25.7485 16.5333C26.1066 17.3156 26.3931 18.6667 25.8201 20.8356C25.0323 23.7867 22.991 27.3778 19.6964 31.5733C18.5146 31.8222 17.3328 31.9644 16.1152 31.9644C11.3523 31.9644 6.87585 29.9022 3.83188 26.2756C7.98601 26.1689 10.9225 24.8533 12.2834 24.0711C12.3192 24.0711 12.3192 24.0356 12.3192 24L12.2834 23.9644L25.1755 17.1378C25.4978 17.0311 25.7127 16.7822 25.7485 16.5333ZM25.7127 16.3556C25.7127 16.3911 25.7127 16.4267 25.7127 16.4267C25.7127 16.7111 25.4978 16.96 25.1397 17.1378L11.5313 24.3556C11.3165 24.4622 11.1016 24.5333 10.9225 24.5333C11.1016 24.5333 11.4597 24.4978 11.6746 24.3556L12.2834 24.0356C10.4928 25.0667 7.55627 26.1689 3.76025 26.2044C6.73261 29.7244 11.1732 31.9644 16.151 31.9644C17.4044 31.9644 18.5862 31.8222 19.768 31.5733C27.3242 21.9378 26.5005 17.7422 25.7127 16.3556Z" fill="#8AD6F7"/>
<path d="M25.641 16.1778C25.641 16.2133 25.6768 16.2133 25.6768 16.2489C25.641 16.2133 25.641 16.1778 25.641 16.1778Z" fill="url(#paint1_linear_1268_76715)"/>
<path d="M25.641 16.1778C25.641 16.2133 25.6768 16.2133 25.641 16.1778C25.6768 16.2133 25.641 16.2133 25.641 16.1778Z" fill="#8AD6F7"/>
<path d="M3.72438 26.2044C3.54533 25.9911 3.36627 25.7778 3.22302 25.5644C5.22846 25.1733 7.41296 24.5333 9.66909 23.68C9.88395 23.8933 10.1346 24.1422 10.4211 24.3555C10.5644 24.4622 10.7076 24.5333 10.9225 24.5333C11.0299 24.5333 11.209 24.5333 11.388 24.4622C9.77652 25.2444 7.19809 26.1689 3.72438 26.2044Z" fill="url(#paint2_linear_1268_76715)"/>
<path d="M9.66913 23.7155C9.95562 23.9644 10.1705 24.1778 10.4212 24.3911C10.5644 24.4978 10.7435 24.5689 10.9225 24.5689C10.9942 24.5689 11.1016 24.5689 11.209 24.5333C9.63332 25.28 7.09071 26.0978 3.79605 26.1689C3.58118 25.9911 3.43794 25.7778 3.25888 25.6C5.26432 25.2089 7.41301 24.5689 9.66913 23.7155ZM9.66913 23.68C7.55626 24.4622 5.33594 25.1378 3.18726 25.5644C3.36631 25.8133 3.54537 26.0267 3.72443 26.24C7.52044 26.1689 10.4928 25.0667 12.2476 24.0711L11.6388 24.3911C11.4597 24.4622 11.1016 24.5333 10.9225 24.5333C10.7435 24.5333 10.5644 24.4622 10.457 24.3555C10.1705 24.1422 9.91981 23.8933 9.66913 23.68Z" fill="#8AD6F7"/>
<path d="M0.787852 11.0933C0.286492 12.6578 0 14.2933 0 16C0 19.5911 1.18178 22.8978 3.18722 25.5644C5.33591 25.1378 7.55622 24.4622 9.6691 23.68C5.19266 19.52 2.14869 14.9333 0.787852 11.0933Z" fill="url(#paint3_linear_1268_76715)"/>
<path d="M11.6745 24.3556C11.4597 24.4622 11.1015 24.5333 10.9225 24.5333C10.7434 24.5333 10.5644 24.4622 10.4569 24.3556C10.2063 24.1422 9.95558 23.8933 9.7049 23.6444C7.59202 24.4267 5.37171 25.1022 3.22302 25.5289C3.40208 25.7778 3.58114 25.9911 3.76019 26.2044C7.55621 26.1333 10.5286 25.0311 12.2833 24.0356L11.6745 24.3556Z" fill="url(#paint4_linear_1268_76715)"/>
<path d="M10.7435 8.35557C10.7076 8.35557 10.7076 8.35557 10.6718 8.35557C10.6718 8.35557 10.6718 8.35557 10.7076 8.32001C10.5644 8.35557 10.4212 8.46224 10.3137 8.60446C10.4212 8.49779 10.5644 8.39112 10.7435 8.35557Z" fill="url(#paint5_linear_1268_76715)"/>
<path d="M10.7435 8.35556C10.7076 8.35556 10.7076 8.35556 10.6718 8.39111C10.6718 8.39111 10.6718 8.39111 10.7076 8.35556C10.5644 8.39111 10.4212 8.49778 10.3137 8.64C10.4212 8.49778 10.5644 8.39111 10.7435 8.35556Z" fill="#8AD6F7"/>
<path d="M10.2421 24.1778C10.063 24 9.84814 23.8222 9.66908 23.6445C5.51495 19.7689 2.29192 15.2178 0.787842 11.0933C1.82637 7.89335 3.93925 5.01335 6.69673 3.05779L9.59746 1.42224C11.1374 0.746681 12.7847 0.320015 14.432 0.142237C10.6002 5.61779 10.0988 9.06668 10.0988 9.10224C10.0988 9.17335 10.0988 9.24446 10.0988 9.31557V23.5022C10.0988 23.6089 10.0988 23.7156 10.1346 23.7867C10.1346 23.9289 10.2063 24.0711 10.2421 24.1778Z" fill="url(#paint6_linear_1268_76715)"/>
<path d="M14.3962 0.142229C10.5644 5.61778 10.0988 9.06667 10.063 9.10223C10.063 9.17334 10.063 9.24445 10.063 9.31556V22.5422V23.5022V23.5378C10.063 23.6445 10.063 23.7156 10.0988 23.8222C10.0988 23.9289 10.1346 24 10.1704 24.0711C10.0272 23.9289 9.88395 23.7867 9.7049 23.6445C5.55077 19.7689 2.32773 15.2178 0.823653 11.0933C1.86219 7.89334 3.97506 5.0489 6.73254 3.05779L9.59746 1.42223C11.1374 0.746674 12.7489 0.320007 14.3962 0.142229ZM14.5036 0.0711184C12.7847 0.248896 11.1374 0.711118 9.59746 1.38667L6.69673 3.02223C3.93925 4.97779 1.82637 7.82223 0.787842 11.0933C2.14868 14.9333 5.19265 19.52 9.66908 23.68C9.91976 23.9289 10.1704 24.1422 10.4211 24.3911C10.4211 24.3911 10.4211 24.3911 10.4211 24.3556C10.2779 24.2133 10.1704 24.0356 10.1346 23.8222C10.1346 23.7511 10.0988 23.6445 10.0988 23.5733V23.5378V22.5778V9.31556C10.0988 9.24445 10.0988 9.17334 10.0988 9.10223C10.1346 9.10223 10.5644 5.6889 14.5036 0.0711184Z" fill="#8AD6F7"/>
<path d="M31.4783 20.8711C30.0458 18.6667 27.8971 16.8889 25.1397 15.5733C25.1397 15.5733 25.1397 15.5733 25.1039 15.5733V15.6089C25.1039 15.6089 25.1397 15.68 25.1755 15.7156C25.1755 15.7156 25.1397 15.7156 25.1397 15.68L11.5313 8.46224C11.3523 8.35557 11.1732 8.32001 10.9941 8.28446C15.1483 6.18668 19.4815 5.12001 23.8863 5.12001C25.3545 5.12001 26.8228 5.22668 28.2553 5.47557C30.7979 8.39112 32.2303 12.1245 32.2303 16C32.2303 17.6711 31.9797 19.2711 31.4783 20.8711Z" fill="url(#paint7_linear_1268_76715)"/>
<path d="M23.8863 5.15557C25.3545 5.15557 26.8228 5.26224 28.2195 5.51113C30.7979 8.42668 32.1945 12.16 32.1945 16C32.1945 17.6356 31.9439 19.2356 31.4425 20.8C29.9742 18.6311 27.8614 16.8533 25.1397 15.5378C25.1397 15.5378 25.1397 15.5378 25.1039 15.5378H25.0681C25.0681 15.5378 25.0681 15.5733 25.0681 15.6089C25.0681 15.6089 25.0681 15.6089 25.1039 15.6445L11.5313 8.46224C11.3881 8.39112 11.2448 8.32001 11.0658 8.28446C15.2199 6.22224 19.5531 5.15557 23.8863 5.15557ZM23.8863 5.12001C20.2335 5.12001 15.7571 5.86668 10.8867 8.32001C11.0658 8.32001 11.2806 8.39112 11.4955 8.49779L25.1039 15.7156C25.1755 15.7511 25.2113 15.7867 25.2829 15.8222C25.2113 15.7511 25.1039 15.5733 25.1039 15.5733C28.3269 17.1378 30.2607 19.0933 31.4425 20.9067C31.9439 19.3778 32.2304 17.7067 32.2304 16C32.2304 11.9822 30.7263 8.28446 28.2553 5.47557C27.0019 5.26224 25.5336 5.12001 23.8863 5.12001Z" fill="#8AD6F7"/>
<path d="M25.5693 16.0355C25.5693 16.0711 25.6051 16.0711 25.6051 16.1067C25.6051 16.0711 25.5693 16.0711 25.5693 16.0355Z" fill="url(#paint8_linear_1268_76715)"/>
<path d="M25.5693 16.0355L25.6051 16.0711C25.5693 16.0711 25.5693 16.0711 25.5693 16.0355ZM25.6051 16.0711C25.6051 16.1067 25.6051 16.1067 25.6051 16.0711C25.6051 16.1067 25.6051 16.1067 25.6051 16.0711Z" fill="#8AD6F7"/>
<path d="M10.7434 8.35557C10.7792 8.35557 10.8509 8.32001 10.8867 8.32001C10.815 8.32001 10.7434 8.32001 10.6718 8.35557C10.6718 8.35557 10.6718 8.35557 10.636 8.39112C10.7076 8.35557 10.7434 8.35557 10.7434 8.35557Z" fill="url(#paint9_linear_1268_76715)"/>
<path d="M10.9224 8.32001C10.8508 8.32001 10.7792 8.32001 10.7076 8.35557C10.7076 8.35557 10.7076 8.35557 10.6718 8.39112C10.7076 8.39112 10.7076 8.39112 10.7434 8.35557C10.815 8.32001 10.8508 8.32001 10.9224 8.32001Z" fill="#8AD6F7"/>
<path d="M19.8037 31.5733C22.3821 28.2667 28.0045 20.3378 25.7484 16.32C25.7484 16.2844 25.7126 16.2489 25.7126 16.2133C25.7126 16.2133 25.7126 16.1778 25.6768 16.1778C25.6768 16.1422 25.641 16.1422 25.641 16.1067C25.641 16.0711 25.6052 16.0711 25.6052 16.0356C25.5694 16 25.5694 15.9644 25.5335 15.9289C25.4619 15.8578 25.4261 15.8222 25.3545 15.7867C25.3187 15.7511 25.2829 15.68 25.2471 15.6444C27.9687 16.96 30.0816 18.7378 31.4782 20.9422C31.1918 21.76 30.8695 22.6133 30.4397 23.36C27.9329 27.2 31.8722 30.5067 32.4093 30.9333C31.9796 30.9333 29.7593 30.8622 27.3957 30.8622C24.0295 30.8622 21.8808 31.0044 21.0571 31.2533C20.6274 31.36 20.1976 31.4667 19.8037 31.5733Z" fill="url(#paint10_linear_1268_76715)"/>
<path d="M25.2828 15.7155C27.9329 17.0311 30.0099 18.7733 31.4066 20.9422C31.1201 21.7955 30.7978 22.6133 30.4039 23.36C27.9687 27.0933 31.5856 30.3289 32.3019 30.8978C31.7289 30.8622 29.616 30.8267 27.3599 30.8267C23.9936 30.8267 21.8449 30.9689 21.0213 31.2178C20.6632 31.3244 20.2692 31.4311 19.8753 31.5378C22.4895 28.1955 28.0045 20.3378 25.7842 16.32C25.7842 16.2844 25.7484 16.2489 25.7484 16.2133C25.7484 16.1778 25.7484 16.1778 25.7126 16.1422C25.7126 16.1067 25.6768 16.1067 25.6768 16.0711C25.6768 16.0355 25.6409 16.0355 25.6409 16C25.6051 15.9644 25.6051 15.9289 25.5335 15.8933C25.4977 15.8578 25.4261 15.8222 25.3903 15.7867C25.3186 15.7511 25.3186 15.7511 25.2828 15.7155ZM25.1396 15.5733C25.1396 15.5733 25.247 15.7511 25.3186 15.8222C25.3545 15.8578 25.4261 15.8933 25.4619 15.9289C25.4619 15.9289 25.4619 15.9289 25.4977 15.9644C25.5335 16 25.5693 16.0355 25.5693 16.0355C25.5693 16.0711 25.6051 16.0711 25.6051 16.1067C25.6051 16.1422 25.6409 16.1422 25.6409 16.1778C25.6409 16.2133 25.6768 16.2133 25.6768 16.2489C25.6768 16.2844 25.7126 16.32 25.7126 16.3555C26.5004 17.7778 27.3241 21.9378 19.7321 31.6444C20.1618 31.5378 20.5915 31.4311 21.0213 31.2889C22.024 30.9689 24.7815 30.8978 27.3599 30.8978C30.0099 30.8978 32.4809 30.9689 32.4809 30.9689C32.4809 30.9689 27.7538 27.4844 30.4397 23.36C30.8336 22.5778 31.1917 21.76 31.4782 20.9067C30.2964 19.0933 28.3268 17.1378 25.1396 15.5733Z" fill="#8AD6F7"/>
<path d="M10.2421 8.7111C10.4927 7.64443 11.4238 4.51554 14.5394 0.106653C15.0766 0.0710971 15.6138 0.0355415 16.151 0.0355415C20.7706 0.0355415 25.1754 1.9911 28.2194 5.43999C26.8228 5.1911 25.3545 5.08443 23.922 5.08443C19.4814 5.08443 15.1124 6.1511 10.9225 8.28443C10.9225 8.28443 10.9225 8.28443 10.8867 8.28443C10.815 8.28443 10.7792 8.28443 10.7076 8.31999C10.5286 8.35554 10.4211 8.46221 10.3137 8.60443C10.2779 8.63999 10.2421 8.67554 10.2421 8.7111Z" fill="url(#paint11_linear_1268_76715)"/>
<path d="M16.1152 0.0355556C20.699 0.0355556 25.068 1.99111 28.112 5.40444C26.7153 5.19111 25.3187 5.04889 23.8862 5.04889C19.4814 5.04889 15.0766 6.11556 10.8867 8.24889C10.8151 8.24889 10.7434 8.24889 10.6718 8.28444C10.4928 8.32 10.3495 8.42667 10.2779 8.56889C10.636 7.07556 11.8178 3.98222 14.5395 0.106667C15.0766 0.0711111 15.6138 0.0355556 16.1152 0.0355556ZM16.1152 0C15.578 0 15.0408 0.0355556 14.5036 0.0711111C10.5644 5.68889 10.1346 9.10222 10.1346 9.10222V9.13778C10.1705 8.92445 10.2063 8.74667 10.3137 8.60444C10.4211 8.46222 10.5286 8.39111 10.7076 8.32C10.7792 8.32 10.8509 8.28444 10.9225 8.28444C15.757 5.83111 20.2693 5.08444 23.9221 5.08444C25.5694 5.08444 27.0377 5.22667 28.2911 5.44C25.3187 2.13333 20.9497 0 16.1152 0Z" fill="#8AD6F7"/>
<defs>
<linearGradient id="paint0_linear_1268_76715" x1="26.1692" y1="24.2305" x2="3.77945" y2="24.2305" gradientUnits="userSpaceOnUse">
<stop stop-color="#4B96B4"/>
<stop offset="0.3645" stop-color="#4FBBDC"/>
<stop offset="1" stop-color="#72CFF5"/>
</linearGradient>
<linearGradient id="paint1_linear_1268_76715" x1="25.6646" y1="16.1922" x2="25.6377" y2="16.1922" gradientUnits="userSpaceOnUse">
<stop stop-color="#4B96B4"/>
<stop offset="0.3645" stop-color="#4FBBDC"/>
<stop offset="1" stop-color="#72CFF5"/>
</linearGradient>
<linearGradient id="paint2_linear_1268_76715" x1="11.3704" y1="24.9559" x2="3.22664" y2="24.9559" gradientUnits="userSpaceOnUse">
<stop stop-color="#4B96B4"/>
<stop offset="0.3645" stop-color="#4FBBDC"/>
<stop offset="1" stop-color="#72CFF5"/>
</linearGradient>
<linearGradient id="paint3_linear_1268_76715" x1="7.59554" y1="26.7377" x2="-2.842" y2="8.52931" gradientUnits="userSpaceOnUse">
<stop stop-color="#4B96B4"/>
<stop offset="0.3175" stop-color="#4FBBDC"/>
<stop offset="1" stop-color="#72CFF5"/>
</linearGradient>
<linearGradient id="paint4_linear_1268_76715" x1="8.53318" y1="26.2002" x2="-1.90432" y2="7.99182" gradientUnits="userSpaceOnUse">
<stop stop-color="#4B96B4"/>
<stop offset="0.3175" stop-color="#4FBBDC"/>
<stop offset="1" stop-color="#72CFF5"/>
</linearGradient>
<linearGradient id="paint5_linear_1268_76715" x1="10.3811" y1="8.67187" x2="10.6956" y2="8.29433" gradientUnits="userSpaceOnUse">
<stop stop-color="#4B96B4"/>
<stop offset="0.3627" stop-color="#4FBBDC"/>
<stop offset="1" stop-color="#72CFF5"/>
</linearGradient>
<linearGradient id="paint6_linear_1268_76715" x1="3.78995" y1="18.7907" x2="17.3441" y2="2.52125" gradientUnits="userSpaceOnUse">
<stop stop-color="#4B96B4"/>
<stop offset="0.3627" stop-color="#4FBBDC"/>
<stop offset="1" stop-color="#72CFF5"/>
</linearGradient>
<linearGradient id="paint7_linear_1268_76715" x1="20.4256" y1="5.30924" x2="23.7147" y2="22.3523" gradientUnits="userSpaceOnUse">
<stop stop-color="#4B96B4"/>
<stop offset="0.4548" stop-color="#4FBBDC"/>
<stop offset="1" stop-color="#72CFF5"/>
</linearGradient>
<linearGradient id="paint8_linear_1268_76715" x1="25.5736" y1="16.0383" x2="25.5875" y2="16.1104" gradientUnits="userSpaceOnUse">
<stop stop-color="#4B96B4"/>
<stop offset="0.4548" stop-color="#4FBBDC"/>
<stop offset="1" stop-color="#72CFF5"/>
</linearGradient>
<linearGradient id="paint9_linear_1268_76715" x1="10.789" y1="8.33153" x2="10.7923" y2="8.34832" gradientUnits="userSpaceOnUse">
<stop stop-color="#4B96B4"/>
<stop offset="0.4548" stop-color="#4FBBDC"/>
<stop offset="1" stop-color="#72CFF5"/>
</linearGradient>
<linearGradient id="paint10_linear_1268_76715" x1="31.3219" y1="19.4252" x2="22.4013" y2="33.2606" gradientUnits="userSpaceOnUse">
<stop stop-color="#4B96B4"/>
<stop offset="0.4548" stop-color="#4FBBDC"/>
<stop offset="1" stop-color="#72CFF5"/>
</linearGradient>
<linearGradient id="paint11_linear_1268_76715" x1="14.7396" y1="-0.0385563" x2="20.9342" y2="9.9463" gradientUnits="userSpaceOnUse">
<stop stop-color="#4B96B4"/>
<stop offset="0.4548" stop-color="#4FBBDC"/>
<stop offset="1" stop-color="#72CFF5"/>
</linearGradient>
</defs>
</svg>
